<mxfile host="65bd71144e">
    <diagram id="Q8eI8MwR1BVG7HaKSukJ" name="model">
        <mxGraphModel dx="481" dy="431" grid="1" gridSize="10" guides="1" tooltips="1" connect="1" arrows="1" fold="1" page="1" pageScale="1" pageWidth="850" pageHeight="1100" background="none" math="0" shadow="0">
            <root>
                <mxCell id="0"/>
                <mxCell id="1" parent="0"/>
                <mxCell id="10" style="edgeStyle=none;html=1;" parent="1" source="9" edge="1">
                    <mxGeometry relative="1" as="geometry">
                        <mxPoint x="400" y="200" as="targetPoint"/>
                    </mxGeometry>
                </mxCell>
                <mxCell id="11" style="edgeStyle=none;html=1;" parent="1" source="9" edge="1">
                    <mxGeometry relative="1" as="geometry">
                        <mxPoint x="600" y="200" as="targetPoint"/>
                    </mxGeometry>
                </mxCell>
                <mxCell id="12" style="edgeStyle=none;html=1;" parent="1" source="9" edge="1">
                    <mxGeometry relative="1" as="geometry">
                        <mxPoint x="201.37931034482767" y="200" as="targetPoint"/>
                    </mxGeometry>
                </mxCell>
                <mxCell id="9" value="Home" style="whiteSpace=wrap;html=1;aspect=fixed;" parent="1" vertex="1">
                    <mxGeometry x="360" y="40" width="80" height="80" as="geometry"/>
                </mxCell>
                <mxCell id="22" value="" style="edgeStyle=none;html=1;" parent="1" source="16" target="21" edge="1">
                    <mxGeometry relative="1" as="geometry"/>
                </mxCell>
                <mxCell id="16" value="About" style="rounded=1;whiteSpace=wrap;html=1;" parent="1" vertex="1">
                    <mxGeometry x="540" y="200" width="120" height="60" as="geometry"/>
                </mxCell>
                <mxCell id="20" value="" style="edgeStyle=none;html=1;" parent="1" source="17" target="19" edge="1">
                    <mxGeometry relative="1" as="geometry"/>
                </mxCell>
                <mxCell id="17" value="Rules" style="rounded=1;whiteSpace=wrap;html=1;" parent="1" vertex="1">
                    <mxGeometry x="340" y="200" width="120" height="60" as="geometry"/>
                </mxCell>
                <mxCell id="24" value="" style="edgeStyle=none;html=1;" parent="1" source="18" target="23" edge="1">
                    <mxGeometry relative="1" as="geometry"/>
                </mxCell>
                <mxCell id="18" value="Game" style="rounded=1;whiteSpace=wrap;html=1;" parent="1" vertex="1">
                    <mxGeometry x="140" y="200" width="120" height="60" as="geometry"/>
                </mxCell>
                <mxCell id="19" value="Rules descibed&lt;br&gt;here" style="shape=trapezoid;perimeter=trapezoidPerimeter;whiteSpace=wrap;html=1;fixedSize=1;rounded=1;" parent="1" vertex="1">
                    <mxGeometry x="340" y="340" width="120" height="60" as="geometry"/>
                </mxCell>
                <mxCell id="21" value="About Sudoku&lt;br&gt;game here" style="shape=trapezoid;perimeter=trapezoidPerimeter;whiteSpace=wrap;html=1;fixedSize=1;rounded=1;" parent="1" vertex="1">
                    <mxGeometry x="540" y="340" width="120" height="60" as="geometry"/>
                </mxCell>
                <mxCell id="28" value="" style="edgeStyle=none;html=1;exitX=0.5;exitY=1;exitDx=0;exitDy=0;" parent="1" source="23" edge="1">
                    <mxGeometry relative="1" as="geometry">
                        <mxPoint x="158" y="357" as="targetPoint"/>
                    </mxGeometry>
                </mxCell>
                <mxCell id="32" style="edgeStyle=none;html=1;exitX=0.5;exitY=1;exitDx=0;exitDy=0;" parent="1" source="23" edge="1">
                    <mxGeometry relative="1" as="geometry">
                        <mxPoint x="240" y="357" as="targetPoint"/>
                    </mxGeometry>
                </mxCell>
                <mxCell id="23" value="Choose level" style="ellipse;whiteSpace=wrap;html=1;rounded=1;" parent="1" vertex="1">
                    <mxGeometry x="140" y="290" width="120" height="30" as="geometry"/>
                </mxCell>
                <mxCell id="25" value="Start" style="shape=hexagon;perimeter=hexagonPerimeter2;whiteSpace=wrap;html=1;fixedSize=1;rounded=1;" parent="1" vertex="1">
                    <mxGeometry x="90" y="357.5" width="100" height="25" as="geometry"/>
                </mxCell>
                <mxCell id="31" value="Back" style="shape=hexagon;perimeter=hexagonPerimeter2;whiteSpace=wrap;html=1;fixedSize=1;rounded=1;" parent="1" vertex="1">
                    <mxGeometry x="210" y="357.5" width="100" height="25" as="geometry"/>
                </mxCell>
            </root>
        </mxGraphModel>
    </diagram>
    <diagram id="K0IS1hVJJRiuVLuciN3v" name="Home">
        <mxGraphModel dx="481" dy="431" grid="1" gridSize="10" guides="1" tooltips="1" connect="1" arrows="1" fold="1" page="1" pageScale="1" pageWidth="850" pageHeight="1100" math="0" shadow="0">
            <root>
                <mxCell id="8Vibu7uCdS0oBx-HiGr8-0"/>
                <mxCell id="8Vibu7uCdS0oBx-HiGr8-1" parent="8Vibu7uCdS0oBx-HiGr8-0"/>
                <mxCell id="8Vibu7uCdS0oBx-HiGr8-2" value="" style="whiteSpace=wrap;html=1;aspect=fixed;" parent="8Vibu7uCdS0oBx-HiGr8-1" vertex="1">
                    <mxGeometry x="160" y="40" width="400" height="400" as="geometry"/>
                </mxCell>
                <mxCell id="8Vibu7uCdS0oBx-HiGr8-5" value="Game" style="rounded=1;whiteSpace=wrap;html=1;" parent="8Vibu7uCdS0oBx-HiGr8-1" vertex="1">
                    <mxGeometry x="180" y="225" width="80" height="30" as="geometry"/>
                </mxCell>
                <mxCell id="8Vibu7uCdS0oBx-HiGr8-7" value="Rules" style="rounded=1;whiteSpace=wrap;html=1;" parent="8Vibu7uCdS0oBx-HiGr8-1" vertex="1">
                    <mxGeometry x="320" y="225" width="80" height="30" as="geometry"/>
                </mxCell>
                <mxCell id="8Vibu7uCdS0oBx-HiGr8-8" value="About" style="rounded=1;whiteSpace=wrap;html=1;" parent="8Vibu7uCdS0oBx-HiGr8-1" vertex="1">
                    <mxGeometry x="460" y="225" width="80" height="30" as="geometry"/>
                </mxCell>
                <mxCell id="8Vibu7uCdS0oBx-HiGr8-9" value="Welcome" style="text;html=1;strokeColor=none;fillColor=none;align=center;verticalAlign=middle;whiteSpace=wrap;rounded=0;" parent="8Vibu7uCdS0oBx-HiGr8-1" vertex="1">
                    <mxGeometry x="260" y="90" width="200" height="20" as="geometry"/>
                </mxCell>
                <mxCell id="8Vibu7uCdS0oBx-HiGr8-10" value="Footer" style="text;html=1;strokeColor=none;fillColor=none;align=center;verticalAlign=middle;whiteSpace=wrap;rounded=0;" parent="8Vibu7uCdS0oBx-HiGr8-1" vertex="1">
                    <mxGeometry x="260" y="420" width="200" height="20" as="geometry"/>
                </mxCell>
            </root>
        </mxGraphModel>
    </diagram>
    <diagram id="4UZiRdmOBPxs3un4Y9Ns" name="Game">
        <mxGraphModel dx="481" dy="431" grid="1" gridSize="10" guides="1" tooltips="1" connect="1" arrows="1" fold="1" page="1" pageScale="1" pageWidth="850" pageHeight="1100" math="0" shadow="1">
            <root>
                <mxCell id="WCAOEuOzH4dlC0q7jCSV-0"/>
                <mxCell id="WCAOEuOzH4dlC0q7jCSV-1" parent="WCAOEuOzH4dlC0q7jCSV-0"/>
                <mxCell id="sJ1i9_FiUszW3uq7sC2A-0" value="" style="whiteSpace=wrap;html=1;aspect=fixed;" parent="WCAOEuOzH4dlC0q7jCSV-1" vertex="1">
                    <mxGeometry x="160" y="20" width="400" height="400" as="geometry"/>
                </mxCell>
                <mxCell id="iKzEMU2KHaUpAorlsWmZ-0" value="Choose level" style="text;html=1;strokeColor=none;fillColor=none;align=center;verticalAlign=middle;whiteSpace=wrap;rounded=0;" parent="WCAOEuOzH4dlC0q7jCSV-1" vertex="1">
                    <mxGeometry x="260" y="90" width="200" height="20" as="geometry"/>
                </mxCell>
                <mxCell id="vGPvNhKcREENwXDDdEzB-0" value="Easy" style="rounded=1;whiteSpace=wrap;html=1;" parent="WCAOEuOzH4dlC0q7jCSV-1" vertex="1">
                    <mxGeometry x="180" y="225" width="80" height="30" as="geometry"/>
                </mxCell>
                <mxCell id="vGPvNhKcREENwXDDdEzB-2" value="Normal" style="rounded=1;whiteSpace=wrap;html=1;" parent="WCAOEuOzH4dlC0q7jCSV-1" vertex="1">
                    <mxGeometry x="320" y="225" width="80" height="30" as="geometry"/>
                </mxCell>
                <mxCell id="vGPvNhKcREENwXDDdEzB-3" value="Hard" style="rounded=1;whiteSpace=wrap;html=1;" parent="WCAOEuOzH4dlC0q7jCSV-1" vertex="1">
                    <mxGeometry x="460" y="225" width="80" height="30" as="geometry"/>
                </mxCell>
                <mxCell id="vGPvNhKcREENwXDDdEzB-4" value="Play" style="rounded=1;whiteSpace=wrap;html=1;" parent="WCAOEuOzH4dlC0q7jCSV-1" vertex="1">
                    <mxGeometry x="240" y="350" width="80" height="30" as="geometry"/>
                </mxCell>
                <mxCell id="vGPvNhKcREENwXDDdEzB-5" value="Back" style="rounded=1;whiteSpace=wrap;html=1;" parent="WCAOEuOzH4dlC0q7jCSV-1" vertex="1">
                    <mxGeometry x="400" y="350" width="80" height="30" as="geometry"/>
                </mxCell>
                <mxCell id="rYOzNzBwmJFno9LqH1cM-93" value="" style="whiteSpace=wrap;html=1;aspect=fixed;" parent="WCAOEuOzH4dlC0q7jCSV-1" vertex="1">
                    <mxGeometry x="160" y="450" width="400" height="400" as="geometry"/>
                </mxCell>
                <mxCell id="rYOzNzBwmJFno9LqH1cM-94" value="Sudoku here" style="whiteSpace=wrap;html=1;aspect=fixed;gradientDirection=east;fillColor=none;" parent="WCAOEuOzH4dlC0q7jCSV-1" vertex="1">
                    <mxGeometry x="255" y="510" width="210" height="210" as="geometry"/>
                </mxCell>
                <mxCell id="rYOzNzBwmJFno9LqH1cM-95" value="Restart" style="rounded=1;whiteSpace=wrap;html=1;" parent="WCAOEuOzH4dlC0q7jCSV-1" vertex="1">
                    <mxGeometry x="190" y="780" width="70" height="30" as="geometry"/>
                </mxCell>
                <mxCell id="rYOzNzBwmJFno9LqH1cM-96" value="Hint" style="rounded=1;whiteSpace=wrap;html=1;" parent="WCAOEuOzH4dlC0q7jCSV-1" vertex="1">
                    <mxGeometry x="280" y="780" width="70" height="30" as="geometry"/>
                </mxCell>
                <mxCell id="rYOzNzBwmJFno9LqH1cM-97" value="Check" style="rounded=1;whiteSpace=wrap;html=1;" parent="WCAOEuOzH4dlC0q7jCSV-1" vertex="1">
                    <mxGeometry x="370" y="780" width="70" height="30" as="geometry"/>
                </mxCell>
                <mxCell id="rYOzNzBwmJFno9LqH1cM-98" value="Header (level, time, progress)" style="text;html=1;strokeColor=none;fillColor=none;align=center;verticalAlign=middle;whiteSpace=wrap;rounded=0;" parent="WCAOEuOzH4dlC0q7jCSV-1" vertex="1">
                    <mxGeometry x="260" y="450" width="200" height="20" as="geometry"/>
                </mxCell>
                <mxCell id="_I6nu8YegFRgrRDNOLOc-0" value="Leave" style="rounded=1;whiteSpace=wrap;html=1;" parent="WCAOEuOzH4dlC0q7jCSV-1" vertex="1">
                    <mxGeometry x="460" y="780" width="70" height="30" as="geometry"/>
                </mxCell>
            </root>
        </mxGraphModel>
    </diagram>
    <diagram id="KZ8osjPpLMDDicJxdSFY" name="Rules">
        <mxGraphModel dx="481" dy="431" grid="1" gridSize="10" guides="1" tooltips="1" connect="1" arrows="1" fold="1" page="1" pageScale="1" pageWidth="850" pageHeight="1100" math="0" shadow="0">
            <root>
                <mxCell id="CALEHEPnFcunocn2_EID-0"/>
                <mxCell id="CALEHEPnFcunocn2_EID-1" parent="CALEHEPnFcunocn2_EID-0"/>
                <mxCell id="swodRDXabXl37uzLvd39-0" value="" style="whiteSpace=wrap;html=1;aspect=fixed;" parent="CALEHEPnFcunocn2_EID-1" vertex="1">
                    <mxGeometry x="160" y="20" width="400" height="400" as="geometry"/>
                </mxCell>
                <mxCell id="swodRDXabXl37uzLvd39-1" value="Rules here" style="rounded=0;whiteSpace=wrap;html=1;fillColor=none;gradientColor=none;gradientDirection=east;" parent="CALEHEPnFcunocn2_EID-1" vertex="1">
                    <mxGeometry x="250" y="80" width="220" height="230" as="geometry"/>
                </mxCell>
                <mxCell id="lVcMtfpy9NoQ_ZaXH9lT-0" value="Back" style="rounded=1;whiteSpace=wrap;html=1;" parent="CALEHEPnFcunocn2_EID-1" vertex="1">
                    <mxGeometry x="180" y="370" width="80" height="30" as="geometry"/>
                </mxCell>
            </root>
        </mxGraphModel>
    </diagram>
    <diagram id="ko6la_xlCPc3-S2mFiSO" name="About">
        <mxGraphModel dx="481" dy="431" grid="1" gridSize="10" guides="1" tooltips="1" connect="1" arrows="1" fold="1" page="1" pageScale="1" pageWidth="850" pageHeight="1100" math="0" shadow="0">
            <root>
                <mxCell id="OfRFfdIzBku3ts8oL8F0-0"/>
                <mxCell id="OfRFfdIzBku3ts8oL8F0-1" parent="OfRFfdIzBku3ts8oL8F0-0"/>
                <mxCell id="Kia7vdDiCrSOJc61z1pn-0" value="" style="whiteSpace=wrap;html=1;aspect=fixed;" parent="OfRFfdIzBku3ts8oL8F0-1" vertex="1">
                    <mxGeometry x="160" y="20" width="400" height="400" as="geometry"/>
                </mxCell>
                <mxCell id="ucILZQxDXDT1vzuF9btt-0" value="About here" style="rounded=0;whiteSpace=wrap;html=1;fillColor=none;gradientColor=none;gradientDirection=east;" parent="OfRFfdIzBku3ts8oL8F0-1" vertex="1">
                    <mxGeometry x="250" y="80" width="220" height="230" as="geometry"/>
                </mxCell>
                <mxCell id="NW3XCYuofsa9lF-Vzu_M-0" value="Back" style="rounded=1;whiteSpace=wrap;html=1;" parent="OfRFfdIzBku3ts8oL8F0-1" vertex="1">
                    <mxGeometry x="180" y="370" width="80" height="30" as="geometry"/>
                </mxCell>
            </root>
        </mxGraphModel>
    </diagram>
</mxfile>